<svg width="48" height="48" viewBox="0 0 48 48" fill="none" xmlns="http://www.w3.org/2000/svg">
<path fill-rule="evenodd" clip-rule="evenodd" d="M3 6V42H45V6H3Z" fill="#E1E1E1"/>
<path fill-rule="evenodd" clip-rule="evenodd" d="M48 8.89999L6 41.6V41.9H45L48 8.89999Z" fill="#EEEEEE"/>
<path opacity="0.4" fill-rule="evenodd" clip-rule="evenodd" d="M48 8.89999L6 41.6V41.9H45L48 8.89999Z" fill="#E1E1E1"/>
<path fill-rule="evenodd" clip-rule="evenodd" d="M6 41.6V41.9L42 13.8V13.6L6 41.6Z" fill="white" fill-opacity="0.4"/>
<path fill-rule="evenodd" clip-rule="evenodd" d="M42 8.89999L45 5.89999C46.7 5.89999 48 7.19999 48 8.89999V38.9C48 40.6 46.7 41.9 45 41.9H42V8.89999Z" fill="#B93426"/>
<path fill-rule="evenodd" clip-rule="evenodd" d="M6 8.89999L3 5.89999C1.3 5.89999 0 7.19999 0 8.89999V38.9C0 40.6 1.3 41.9 3 41.9H6V8.89999Z" fill="#D23F30"/>
<path fill-rule="evenodd" clip-rule="evenodd" d="M31.8 41.9L0.900024 11L24 20.4L48 8.89999V38.9C48 40.6 46.7 41.9 45 41.9H31.8Z" fill="url(#paint0_radial)"/>
<path fill-rule="evenodd" clip-rule="evenodd" d="M24 27.6L45 5.89999H3L24 27.6Z" fill="#EEEEEE"/>
<path fill-rule="evenodd" clip-rule="evenodd" d="M46.7 11.3C47.5 10.8 48 9.89999 48 8.89999C48 7.19999 46.7 5.89999 45 5.89999H44L24 20.4L4 5.89999H3C1.3 5.89999 0 7.19999 0 8.89999C0 9.89999 0.5 10.8 1.3 11.3L24 27.6L46.7 11.3Z" fill="#DB4436"/>
<defs>
<radialGradient id="paint0_radial" cx="0" cy="0" r="1" gradientUnits="userSpaceOnUse" gradientTransform="translate(0.857123 10.9589) scale(55.2217 38.6904)">
<stop offset="0.32" stop-color="#263238" stop-opacity="0.2"/>
<stop offset="1" stop-color="#263238" stop-opacity="0"/>
</radialGradient>
</defs>
</svg>
